Coordinates
version=1
nRows=39
nColumns=18
inDegrees=yes

Units are S.I. units (second, meters, Newtons, ...)
If the header above contains a line with 'inDegrees', this indicates whether rotational values are in degrees (yes) or radians (no).

endheader
time	ground_thorax_rot_x	ground_thorax_rot_y	ground_thorax_rot_z	ground_thorax_tx	ground_thorax_ty	ground_thorax_tz	clav_prot	clav_elev	scapula_abduction	scapula_elevation	scapula_upward_rot	scapula_winging	plane_elv	shoulder_elv	axial_rot	elbow_flexion	pro_sup
      0.84000000	      5.93428234	      1.49926105	    -12.39016067	      0.00064997	      0.01238705	      0.02096069	    -24.34344516	    -15.33588948	    -24.66108928	    -12.77558961	     15.51247180	     19.94609455	    -49.55749227	     30.50498518	     54.05623732	     27.42675225	   -167.25543496
      0.86000000	      6.00732344	      1.45364158	    -12.78844940	      0.00290163	      0.01205357	      0.02139939	    -24.40211750	    -15.15235088	    -24.89208861	    -12.61858243	     15.41221209	     19.87337887	    -50.53025596	     30.84720707	     54.98836608	     27.29954809	   -167.34761476
      0.88000000	      6.08036062	      1.34293316	    -13.17713595	      0.00508649	      0.01159099	      0.02189807	    -24.37959513	    -14.86594461	    -25.15594671	    -12.32922945	     15.10148807	     19.78866202	    -51.02978123	     31.19303221	     55.09266827	     27.00673755	   -167.38059177
      0.90000000	      6.11610716	      1.29340636	    -13.45866884	      0.00719561	      0.01124096	      0.02235922	    -24.46218941	    -14.61063260	    -25.47070423	    -12.11304496	     14.97315105	     19.68980222	    -52.09873035	     31.53305584	     56.19998835	     26.86188201	   -167.42048260
      0.92000000	      6.21405281	      1.14785922	    -13.78812334	      0.00933278	      0.01078779	      0.02293277	    -24.45816248	    -14.30103892	    -25.77901751	    -11.80452001	     14.65446376	     19.60256773	    -52.63476347	     31.97010866	     56.34421740	     26.65012681	   -167.44184566
      0.94000000	      6.28579781	      1.04016431	    -14.04394357	      0.01136684	      0.01034311	      0.02344427	    -24.47957014	    -13.97673469	    -26.13633686	    -11.48577689	     14.33593197	     19.51374231	    -53.32702555	     32.46386942	     56.72445746	     26.56199105	   -167.44517600
      0.96000000	      6.32812295	      0.90680420	    -14.37075560	      0.01349303	      0.00984435	      0.02393217	    -24.54028686	    -13.71188215	    -26.49437071	    -11.23128312	     14.09138940	     19.44359788	    -54.08768579	     32.92627581	     57.43672311	     26.50357591	   -167.39582860
      0.98000000	      6.37297246	      0.48969733	    -14.89620360	      0.01592579	      0.00913804	      0.02469405	    -24.55823094	    -13.47760194	    -26.76342993	    -10.99746928	     13.85036001	     19.38726117	    -54.35839635	     33.25927260	     57.46046719	     26.33372286	   -167.40964251
      1.00000000	      6.41020857	      0.42851148	    -15.13423238	      0.01788091	      0.00887017	      0.02517088	    -24.74430636	    -13.26294245	    -27.20169156	    -10.83436360	     13.79391713	     19.30912497	    -55.43631747	     33.67670284	     59.07407950	     26.10558192	   -167.10546536
      1.02000000	      6.43345595	      0.01425587	    -15.64832745	      0.02020552	      0.00812734	      0.02587427	    -24.76711372	    -13.02288374	    -27.47126337	    -10.59956371	     13.56702810	     19.25085845	    -55.70102697	     34.03164118	     59.09113856	     25.93913158	   -167.11867237
      1.04000000	      6.52063122	     -0.06428042	    -15.81327882	      0.02199647	      0.00779578	      0.02640740	    -24.90876455	    -12.69418256	    -27.93753197	    -10.32187245	     13.40451946	     19.14519545	    -56.48936899	     34.56314250	     60.13596640	     25.80142403	   -166.74822448
      1.06000000	      6.52253629	     -0.47139470	    -16.31410549	      0.02421682	      0.00703250	      0.02706620	    -24.93762726	    -12.45648657	    -28.20261369	    -10.09390121	     13.19871079	     19.08825356	    -56.74506077	     34.92949938	     60.15073121	     25.63604501	   -166.76009331
      1.08000000	      6.62139655	     -0.67987603	    -16.52372074	      0.02602509	      0.00671495	      0.02766786	    -24.98652656	    -12.16978951	    -28.54676573	     -9.81954687	     12.95140957	     19.02291605	    -57.21365030	     35.53190289	     60.38942215	     25.42975882	   -166.69260696
      1.10000000	      6.59567407	     -1.06947407	    -17.01066131	      0.02815575	      0.00590872	      0.02825407	    -25.02112133	    -11.93455006	    -28.80589394	     -9.59885197	     12.76804141	     18.96659789	    -57.45951263	     35.90179909	     60.40900744	     25.27183335	   -166.70075136
      1.12000000	      6.58192018	     -1.16024506	    -17.29217452	      0.02997777	      0.00549454	      0.02877423	    -25.28026962	    -11.74525773	    -29.36198998	     -9.46123264	     12.72207259	     18.90722788	    -58.15696141	     36.29022558	     61.86373624	     25.01575773	   -165.92536288
      1.14000000	      6.54017220	     -1.53174551	    -17.76021212	      0.03201426	      0.00467684	      0.02931569	    -25.31771458	    -11.51648223	    -29.60665588	     -9.25215743	     12.56525882	     18.85026058	    -58.38554152	     36.66731843	     61.87222364	     24.85544524	   -165.93459316
      1.16000000	      6.58849648	     -1.81745636	    -18.08557800	      0.03386706	      0.00421422	      0.02988274	    -25.37609275	    -11.29548772	    -29.87113937	     -9.05599503	     12.43152885	     18.79332594	    -58.68938058	     37.15225685	     61.95533059	     24.55804392	   -165.87735990
      1.18000000	      6.52330579	     -2.15927393	    -18.53282725	      0.03579457	      0.00336628	      0.03035533	    -25.41667711	    -11.07364258	    -30.10365837	     -8.85816053	     12.29840171	     18.73692488	    -58.90250969	     37.52558495	     61.96601367	     24.40221224	   -165.88290289
      1.20000000	      6.53817261	     -2.38880671	    -18.85105900	      0.03753602	      0.00287784	      0.03079414	    -25.49430062	    -10.87468333	    -30.37895703	     -8.68605459	     12.19031342	     18.68611942	    -59.18830792	     37.96328234	     62.10955975	     24.01830532	   -165.77291987
      1.22000000	      6.45188826	     -2.70437214	    -19.27803136	      0.03936210	      0.00199951	      0.03118987	    -25.53734845	    -10.66153397	    -30.59710953	     -8.50115095	     12.08184319	     18.63004187	    -59.38235651	     38.32957173	     62.11970129	     23.86682448	   -165.77565500
      1.24000000	      6.45880563	     -2.89884970	    -19.64101279	      0.04102519	      0.00133829	      0.03171151	    -25.79201191	    -10.34307530	    -31.02714286	     -8.33246545	     12.27963370	     18.46124841	    -59.69043134	     38.38382876	     63.15713799	     23.22112109	   -164.67607636
      1.26000000	      6.36057523	     -3.18526143	    -20.04365366	      0.04273094	      0.00045909	      0.03200220	    -25.83416117	    -10.14137377	    -31.22437745	     -8.16288348	     12.19634352	     18.40582842	    -59.86281047	     38.74836895	     63.15657356	     23.07316871	   -164.68256342
      1.28000000	      6.31726334	     -3.46131405	    -20.40030091	      0.04435459	     -0.00015651	      0.03227876	    -25.87964457	     -9.97409914	    -31.37861236	     -8.03437146	     12.17020346	     18.34993579	    -60.01491384	     39.06648344	     63.10225944	     22.55817323	   -164.64086011
      1.30000000	      6.20192158	     -3.75373646	    -20.77460391	      0.04590097	     -0.00092704	      0.03251926	    -25.91386701	     -9.76686570	    -31.52762898	     -7.87492482	     12.14178735	     18.28040406	    -60.10736381	     39.27753897	     63.07484257	     22.06325039	   -164.57068391
      1.32000000	      6.10241802	     -4.02625404	    -21.13315684	      0.04739296	     -0.00171395	      0.03268073	    -25.94998531	     -9.55007967	    -31.66930681	     -7.71436964	     12.13501408	     18.20299426	    -60.19794909	     39.51395332	     63.06727720	     21.62417470	   -164.50587888
      1.34000000	      5.98416555	     -4.28454812	    -21.47412895	      0.04880265	     -0.00249979	      0.03276762	    -25.98296491	     -9.32595331	    -31.79965899	     -7.55175383	     12.14124584	     18.12078187	    -60.28781268	     39.72066545	     63.05767700	     21.15891861	   -164.44870910
      1.36000000	      5.85659076	     -4.53051900	    -21.79609574	      0.05013485	     -0.00326439	      0.03277402	    -26.01242905	     -9.10357351	    -31.91727661	     -7.39288367	     12.15703424	     18.03796186	    -60.37556765	     39.91777594	     63.04439134	     20.68071553	   -164.40595480
      1.38000000	      5.72160088	     -4.75628807	    -22.10619069	      0.05139898	     -0.00400656	      0.03272171	    -26.03367781	     -8.88039284	    -32.01990890	     -7.23341213	     12.17432289	     17.95570098	    -60.46319184	     40.09532139	     63.02607870	     20.17500016	   -164.37699957
      1.40000000	      5.57107298	     -4.96685042	    -22.40490857	      0.05258853	     -0.00474221	      0.03260338	    -26.04662852	     -8.65129722	    -32.10919665	     -7.06953348	     12.19306964	     17.87231491	    -60.54834056	     40.24543560	     63.00547639	     19.64457187	   -164.36018969
      1.42000000	      5.40602870	     -5.16884626	    -22.68984640	      0.05371257	     -0.00547592	      0.03242425	    -26.05469326	     -8.41627703	    -32.18873841	     -6.90251575	     12.21718029	     17.78690666	    -60.63228904	     40.37584038	     62.98597849	     19.09935591	   -164.35557958
      1.44000000	      5.23067898	     -5.35458750	    -22.95899806	      0.05478353	     -0.00616819	      0.03219048	    -26.05867685	     -8.18078370	    -32.26095538	     -6.73529129	     12.24240012	     17.70250518	    -60.72329164	     40.49012569	     62.96384755	     18.53642303	   -164.36504983
      1.46000000	      5.04919253	     -5.51377889	    -23.21046389	      0.05579759	     -0.00680015	      0.03186754	    -26.05859389	     -7.95120728	    -32.32611650	     -6.57157101	     12.26501058	     17.62219129	    -60.82726193	     40.59445207	     62.93280168	     17.94334091	   -164.38910483
      1.48000000	      4.85871343	     -5.65753095	    -23.45955813	      0.05677277	     -0.00742215	      0.03151105	    -26.05618946	     -7.73501421	    -32.39025317	     -6.41469509	     12.27667394	     17.55047634	    -60.93875726	     40.70553875	     62.90104941	     17.38032981	   -164.42366239
      1.50000000	      4.66324514	     -5.76844850	    -23.69344565	      0.05769293	     -0.00800950	      0.03108976	    -26.05278962	     -7.52670536	    -32.45816176	     -6.26036015	     12.27646553	     17.48573279	    -61.06881210	     40.81695295	     62.85219192	     16.80750076	   -164.46660943
      1.52000000	      4.45526676	     -5.86360586	    -23.92296200	      0.05856062	     -0.00857424	      0.03060348	    -26.04498051	     -7.32616702	    -32.51949281	     -6.11004895	     12.27079840	     17.42607749	    -61.19703224	     40.91748926	     62.79352168	     16.22598068	   -164.51665104
      1.54000000	      4.23926766	     -5.95749392	    -24.14860240	      0.05942748	     -0.00912089	      0.03011770	    -26.03485215	     -7.12971638	    -32.57746781	     -5.96189374	     12.26239713	     17.36956281	    -61.31889409	     41.01161978	     62.72853908	     15.65465496	   -164.57466246
      1.56000000	      4.02647603	     -6.03146623	    -24.37450546	      0.06025709	     -0.00966608	      0.02957912	    -26.02201241	     -6.93929057	    -32.62933533	     -5.81794813	     12.25326032	     17.31558125	    -61.44085791	     41.10492904	     62.65359459	     15.08662004	   -164.64120868
      1.58000000	      3.82706928	     -6.07185508	    -24.58608565	      0.06105687	     -0.01015210	      0.02902386	    -26.01368026	     -6.76642465	    -32.69255203	     -5.68320030	     12.23014771	     17.27260418	    -61.58623897	     41.22922652	     62.57200879	     14.57368407	   -164.69752608
      1.60000000	      3.62032683	     -6.10396538	    -24.79554893	      0.06182168	     -0.01063107	      0.02844554	    -26.00389308	     -6.60705994	    -32.75178421	     -5.55708877	     12.20223146	     17.23524724	    -61.72265248	     41.34996327	     62.47988346	     14.07024996	   -164.75055086
